<?xml version="1.0" encoding="UTF-8"?>
<!DOCTYPE svg PUBLIC "-//W3C//DTD SVG 1.1//EN" "http://www.w3.org/Graphics/SVG/1.1/DTD/svg11.dtd">
<!-- Creator: CorelDRAW 2021 (64 Bit) -->
<svg xmlns="http://www.w3.org/2000/svg" xml:space="preserve" width="43.3492mm" height="43.3492mm" version="1.1" style="shape-rendering:geometricPrecision; text-rendering:geometricPrecision; image-rendering:optimizeQuality; fill-rule:evenodd; clip-rule:evenodd"
viewBox="0 0 4334.92 4334.92"
 xmlns:xlink="http://www.w3.org/1999/xlink"
 xmlns:xodm="http://www.corel.com/coreldraw/odm/2003">
 <defs>
  <style type="text/css">
   <![CDATA[
    .str0 {stroke:#FEFEFE;stroke-width:20;stroke-miterlimit:22.9256}
    .fil0 {fill:#002F52}
   ]]>
  </style>
 </defs>
 <g id="Camada_x0020_1">
  <metadata id="CorelCorpID_0Corel-Layer"/>
  <g id="_2614336270496">
   <path class="fil0 str0" d="M2491.78 0.6l163.47 -0.07c599.46,0 1085.43,485.95 1085.43,1085.45 0,330.23 -147.47,626.03 -380.15,825.08 -77.76,66.53 -118.33,154.59 -118.33,256.93 0,102.34 40.57,190.42 118.33,256.93 232.66,199.07 380.15,494.85 380.15,825.08 0,599.48 -485.97,1085.46 -1085.43,1085.46l-163.62 0c136.78,-59.67 260.11,-144.43 364.17,-248.5 214.21,-214.21 346.7,-510.15 346.7,-836.96 0,-176.22 -38.81,-343.87 -108.31,-494.72 -71.97,-156.23 -177.13,-294.2 -306.37,-404.78 -27.92,-23.88 -49.06,-51.35 -63.01,-81.66 -13.76,-29.86 -20.79,-63.71 -20.79,-100.85 0,-37.14 7.03,-70.97 20.79,-100.83 13.95,-30.33 35.07,-57.78 63.01,-81.68 129.24,-110.58 234.4,-248.51 306.37,-404.74 69.52,-150.89 108.31,-318.54 108.31,-494.76 0,-326.84 -132.49,-622.75 -346.7,-836.96 -104.01,-104.01 -227.28,-188.75 -364.02,-248.42zm-1174.76 4237.01c-62.08,-61.36 -100.65,-146.47 -100.65,-240.31l0 -3657.9c0,-93.87 38.61,-179.02 100.76,-240.4l222.97 -0.24 478.75 -0.02c272.64,0 519.47,110.5 698.09,289.14 178.63,178.63 289.13,425.47 289.13,698.1 0,147.68 -32.2,287.47 -89.86,412.65 -60.15,130.57 -147.94,245.76 -255.75,338 -49.81,42.63 -87.89,92.52 -113.64,148.42 -25.98,56.37 -39.23,117.76 -39.23,182.94 0,65.18 13.25,126.59 39.23,182.96 25.75,55.88 63.83,105.8 113.64,148.4 107.81,92.24 195.6,207.45 255.75,338.04 57.66,125.16 89.86,264.91 89.86,412.61 0,272.63 -110.5,519.47 -289.13,698.1 -178.63,178.64 -425.45,289.14 -698.09,289.14l0 0.39 -701.83 -0.02z"/>
   <path class="fil0" d="M918.41 1.26c366.91,0.31 733.65,-0.74 1100.44,-0.74 599.47,0 1085.44,485.97 1085.44,1085.46 0,330.23 -147.48,626.02 -380.16,825.08 -77.76,66.52 -118.32,154.6 -118.32,256.93 0,102.34 40.56,190.41 118.32,256.94 232.67,199.06 380.16,494.84 380.16,825.07 0,599.49 -485.97,1085.46 -1085.44,1085.46 -361.78,0 -732.03,-0.02 -1100.73,-0.02 -186.25,0 -338.14,-151.89 -338.14,-338.14l0 -3657.9c0,-186.34 152.09,-338.3 338.43,-338.14z"/>
  </g>
 </g>
</svg>
